<?xml version="1.0" standalone="no"?>
<!DOCTYPE svg PUBLIC "-//W3C//DTD SVG 20010904//EN"
 "http://www.w3.org/TR/2001/REC-SVG-20010904/DTD/svg10.dtd">
<svg version="1.0" xmlns="http://www.w3.org/2000/svg"
 width="2480.000000pt" height="3508.000000pt" viewBox="0 0 2480.000000 3508.000000"
 preserveAspectRatio="xMidYMid meet">

<g transform="translate(0.000000,3508.000000) scale(0.100000,-0.100000)"
fill="#000000" stroke="none">
<path d="M9958 19657 c-4 -79 -12 -131 -27 -177 -26 -77 -111 -260 -121 -260
-10 0 9 97 26 139 26 61 9 42 -33 -37 -48 -89 -70 -159 -80 -256 l-8 -69 -23
44 -23 44 3 -95 c3 -77 9 -106 30 -152 36 -77 81 -131 144 -173 63 -42 73 -44
39 -8 -34 38 -48 85 -43 149 4 43 22 87 85 212 44 87 84 176 88 200 4 23 10
42 15 42 4 0 23 -19 42 -43 94 -114 138 -221 138 -336 0 -114 -30 -185 -102
-238 -27 -19 -29 -23 -12 -23 40 0 124 52 178 111 132 142 170 341 96 506
l-22 48 -17 -68 c-10 -37 -25 -75 -34 -85 -16 -15 -17 -14 -17 20 0 97 -75
309 -152 429 -41 64 -135 176 -153 183 -10 3 -14 -22 -17 -107z"/>
<path d="M10035 19035 c-12 -51 -35 -107 -74 -180 -49 -89 -56 -123 -37 -169
42 -101 163 -54 182 71 8 57 -9 164 -40 245 -23 61 -24 62 -31 33z"/>
<path d="M6350 18820 c-122 -10 -211 -35 -325 -90 -171 -83 -283 -193 -371
-363 -71 -138 -97 -250 -97 -432 -1 -181 20 -282 88 -422 121 -249 353 -418
635 -463 84 -13 247 -13 330 1 278 44 521 228 643 487 l32 67 3 218 3 217
-466 0 -466 0 3 -157 3 -158 268 -3 268 -2 -6 -23 c-14 -47 -72 -131 -123
-177 -72 -67 -141 -92 -268 -98 -172 -7 -288 33 -382 131 -100 106 -137 223
-129 407 7 162 46 260 140 351 115 113 318 150 482 88 45 -17 75 -38 122 -86
l63 -63 230 0 c143 0 230 4 230 10 0 23 -53 147 -85 200 -156 256 -463 390
-825 360z"/>
<path d="M9145 18459 c-214 -19 -402 -127 -514 -294 -81 -121 -121 -259 -121
-413 0 -292 132 -523 362 -636 117 -57 186 -76 314 -83 236 -13 454 69 596
226 108 120 166 267 175 446 9 182 -27 324 -118 460 -143 213 -397 320 -694
294z m210 -393 c58 -26 109 -80 139 -145 18 -39 21 -65 21 -171 0 -110 -3
-131 -24 -178 -14 -32 -44 -70 -73 -97 -141 -127 -352 -87 -435 83 -26 54 -28
65 -28 187 0 115 3 136 23 180 50 108 138 165 257 165 52 0 83 -6 120 -24z"/>
<path d="M8261 18444 c-86 -23 -150 -63 -233 -145 l-78 -77 0 114 0 114 -212
-2 -213 -3 -3 -697 -2 -698 214 0 215 0 3 378 3 377 26 56 c48 101 121 137
297 146 l112 6 0 223 0 224 -37 -1 c-21 0 -62 -7 -92 -15z"/>
</g>
</svg>
